<?xml version="1.0" encoding="UTF-8" standalone="no"?><!DOCTYPE svg PUBLIC "-//W3C//DTD SVG 1.1//EN" "http://www.w3.org/Graphics/SVG/1.1/DTD/svg11.dtd"><svg width="100%" height="100%" viewBox="0 0 3558 2488" version="1.1" xmlns="http://www.w3.org/2000/svg" xmlns:xlink="http://www.w3.org/1999/xlink" xml:space="preserve" xmlns:serif="http://www.serif.com/" style="fill-rule:evenodd;clip-rule:evenodd;stroke-linejoin:round;stroke-miterlimit:2;"><path d="M3557.9,120.192c0,-66.336 -53.856,-120.192 -120.192,-120.192l-3317.52,0c-66.336,0 -120.192,53.856 -120.192,120.192l0,2247.33c0,66.336 53.856,120.192 120.192,120.192l3317.52,0c66.336,0 120.192,-53.856 120.192,-120.192l0,-2247.33Z" style="fill:#fff;"/><path d="M1308.65,1530.86c0,-129.449 -105.095,-234.544 -234.542,-234.544l-671.189,0c-129.449,0 -234.544,105.095 -234.544,234.544l0,689.742c0,129.447 105.095,234.542 234.544,234.542l671.189,0c129.447,0 234.542,-105.095 234.542,-234.542l0,-689.742Z" style="fill:#ef4b4a;"/><path d="M165.414,2116.86c-1.012,-2.43 -1.587,-5.223 -1.587,-8.193l0,-622.851c0,-9.385 5.747,-17.004 12.826,-17.004l1123.93,0c7.079,0 12.826,7.619 12.826,17.004l0,622.851c0,4.135 -1.117,7.928 -2.972,10.876l0,114.314c0,43.641 -11.798,83.659 -31.391,114.743c-30.74,69.042 -87.176,115.343 -151.649,115.343l-779.625,0c-65.076,0 -121.963,-47.172 -152.502,-117.286c-18.675,-30.722 -29.861,-69.78 -29.861,-112.275l0,-117.522Z" style="fill:#f8f8f8;"/><rect x="1119.82" y="1653.07" width="111.112" height="111.112" style="fill:#f27271;"/><rect x="971.353" y="1801.53" width="111.112" height="111.112" style="fill:#f27271;"/><rect x="1119.82" y="1801.53" width="111.112" height="111.112" style="fill:#f27271;"/><rect x="822.889" y="1801.53" width="111.112" height="111.112" style="fill:#a09a9a;"/><rect x="674.425" y="1801.53" width="111.112" height="111.112" style="fill:#a09a9a;"/><rect x="525.961" y="1801.53" width="111.112" height="111.112" style="fill:#a09a9a;"/><rect x="377.497" y="1801.53" width="111.112" height="111.112" style="fill:#a09a9a;"/><rect x="229.034" y="1801.53" width="111.112" height="111.112" style="fill:#a09a9a;"/><rect x="674.425" y="1949.99" width="111.112" height="111.112" style="fill:#a09a9a;"/><rect x="971.353" y="1949.99" width="111.112" height="111.112" style="fill:#f27271;"/><rect x="1119.82" y="1949.99" width="111.112" height="111.112" style="fill:#f27271;"/><rect x="971.353" y="2098.46" width="111.112" height="111.112" style="fill:#f27271;"/><rect x="1119.82" y="2098.46" width="111.112" height="111.112" style="fill:#f27271;"/><rect x="525.961" y="1949.99" width="111.112" height="111.112" style="fill:#a09a9a;"/><rect x="377.497" y="1949.99" width="111.112" height="111.112" style="fill:#a09a9a;"/><rect x="229.034" y="1949.99" width="111.112" height="111.112" style="fill:#a09a9a;"/><rect x="822.889" y="1949.99" width="111.112" height="111.112" style="fill:#a09a9a;"/><rect x="674.425" y="2098.46" width="111.112" height="111.112" style="fill:#a09a9a;"/><rect x="525.961" y="2098.46" width="111.112" height="111.112" style="fill:#a09a9a;"/><rect x="377.497" y="2098.46" width="111.112" height="111.112" style="fill:#a09a9a;"/><rect x="229.034" y="2098.46" width="111.112" height="111.112" style="fill:#a09a9a;"/><rect x="377.497" y="2246.92" width="111.112" height="111.112" style="fill:#a09a9a;"/><rect x="229.034" y="2246.92" width="111.112" height="111.112" style="fill:#a09a9a;"/><rect x="822.889" y="2098.46" width="111.112" height="111.112" style="fill:#a09a9a;"/><ellipse cx="417.873" cy="1383.5" rx="41.442" ry="40.841" style="fill:#f8f8f8;"/><ellipse cx="1061.22" cy="1383.5" rx="41.442" ry="40.841" style="fill:#f8f8f8;"/><path d="M3382.39,482.472c0,-129.449 -105.096,-234.544 -234.543,-234.544l-671.189,0c-129.448,0 -234.543,105.095 -234.543,234.544l0,689.742c0,129.447 105.095,234.542 234.543,234.542l671.189,0c129.447,0 234.543,-105.095 234.543,-234.542l0,-689.742Z" style="fill:#ef4b4a;"/><path d="M2239.15,1068.47c-1.012,-2.43 -1.588,-5.223 -1.588,-8.193l0,-622.851c0,-9.385 5.748,-17.004 12.826,-17.004l1123.93,0c7.079,0 12.826,7.619 12.826,17.004l0,622.851c0,4.135 -1.116,7.928 -2.972,10.876l0,114.314c0,43.641 -11.798,83.659 -31.391,114.743c-30.739,69.042 -87.175,115.343 -151.648,115.343l-779.626,0c-65.076,0 -121.963,-47.172 -152.502,-117.286c-18.675,-30.722 -29.86,-69.78 -29.86,-112.275l0,-117.522Z" style="fill:#f8f8f8;"/><rect x="3193.55" y="604.678" width="111.112" height="111.112" style="fill:#f27271;"/><rect x="3045.09" y="753.142" width="111.112" height="111.112" style="fill:#f27271;"/><rect x="3193.55" y="753.142" width="111.112" height="111.112" style="fill:#f27271;"/><rect x="2896.62" y="753.142" width="111.112" height="111.112" style="fill:#a09a9a;"/><rect x="2748.16" y="753.142" width="111.112" height="111.112" style="fill:#a09a9a;"/><rect x="2599.69" y="753.142" width="111.112" height="111.112" style="fill:#a09a9a;"/><rect x="2451.23" y="753.142" width="111.112" height="111.112" style="fill:#a09a9a;"/><rect x="2302.77" y="753.142" width="111.112" height="111.112" style="fill:#a09a9a;"/><rect x="2748.16" y="901.606" width="111.112" height="111.112" style="fill:#a09a9a;"/><rect x="3045.09" y="901.606" width="111.112" height="111.112" style="fill:#f27271;"/><rect x="3193.55" y="901.606" width="111.112" height="111.112" style="fill:#f27271;"/><rect x="3045.09" y="1050.07" width="111.112" height="111.112" style="fill:#f27271;"/><rect x="3193.55" y="1050.07" width="111.112" height="111.112" style="fill:#f27271;"/><rect x="2599.69" y="901.606" width="111.112" height="111.112" style="fill:#a09a9a;"/><rect x="2451.23" y="901.606" width="111.112" height="111.112" style="fill:#a09a9a;"/><rect x="2302.77" y="901.606" width="111.112" height="111.112" style="fill:#a09a9a;"/><rect x="2896.62" y="901.606" width="111.112" height="111.112" style="fill:#a09a9a;"/><rect x="2748.16" y="1050.07" width="111.112" height="111.112" style="fill:#a09a9a;"/><rect x="2599.69" y="1050.07" width="111.112" height="111.112" style="fill:#a09a9a;"/><rect x="2451.23" y="1050.07" width="111.112" height="111.112" style="fill:#a09a9a;"/><rect x="2302.77" y="1050.07" width="111.112" height="111.112" style="fill:#a09a9a;"/><rect x="2451.23" y="1198.53" width="111.112" height="111.112" style="fill:#a09a9a;"/><rect x="2302.77" y="1198.53" width="111.112" height="111.112" style="fill:#a09a9a;"/><rect x="2896.62" y="1050.07" width="111.112" height="111.112" style="fill:#a09a9a;"/><ellipse cx="2491.61" cy="335.114" rx="41.442" ry="40.841" style="fill:#f8f8f8;"/><ellipse cx="3134.95" cy="335.114" rx="41.442" ry="40.841" style="fill:#f8f8f8;"/><path d="M1349.27,1917.42c56.441,-2.951 110.341,-14.179 165.164,-27.193c140.255,-33.295 185.566,-148.245 204.681,-280.361c18.613,-128.639 12.226,-273.515 49.529,-370.778c80.424,-209.691 264.394,-284.819 469.762,-310.115c3.8,-0.468 6.505,-3.933 6.037,-7.733c-0.468,-3.8 -3.933,-6.505 -7.733,-6.037c-210.565,25.937 -398.56,103.919 -481.019,318.917c-37.609,98.058 -31.541,244.068 -50.306,373.76c-18.263,126.216 -60.163,237.04 -194.156,268.848c-54.002,12.82 -107.087,23.93 -162.684,26.837c-3.823,0.2 -6.765,3.467 -6.565,7.29c0.2,3.823 3.466,6.765 7.29,6.565Z"/><text x="511.249px" y="1653.24px" style="font-family:'ArialMT', 'Arial', sans-serif;font-size:205.919px;">2017</text><text x="2586.61px" y="606.487px" style="font-family:'ArialMT', 'Arial', sans-serif;font-size:205.919px;">2020</text><text x="179.74px" y="1196.62px" style="font-family:'SimSun';font-size:157.11px;">Dev Estagiária</text><text x="2409.52px" y="172.606px" style="font-family:'SimSun';font-size:157.11px;">Dev Sênior</text></svg>